# AST/ASF file generated using VICON BodyLanguage
# -----------------------------------------------
:version 1.10
:name VICON
:units
  mass 1.0
  length 0.45
  angle deg
:documentation
   .ast/.asf automatically generated from VICON data using
   VICON BodyBuilder and BodyLanguage model FoxedUp or BRILLIANT.MOD
:root
   order TX TY TZ RX RY RZ
   axis XYZ
   position 0 0 0  
   orientation 0 0 0 
:bonedata
  begin
     id 1 
     name lhipjoint
     direction 0.630305 -0.712092 0.309259 
     length 2.29033 
     axis 0 0 0  XYZ
  end
  begin
     id 2 
     name lfemur
     direction 0.34202 -0.939693 0  
     length 6.43538  
     axis 0 0 20  XYZ
    dof rx ry rz
    limits (-160.0 20.0)
           (-70.0 70.0)
           (-60.0 70.0)
  end
  begin
     id 3 
     name ltibia
     direction 0.34202 -0.939693 0   
     length 7.43097   
     axis 0 0 20   XYZ
    dof rx
    limits (-10.0 170.0)
  end
  begin
     id 4 
     name lfoot
     direction 0.0334653 -0.0919451 0.995202   
     length 1.78438   
     axis -90 7.62852e-016 20   XYZ
    dof rx rz
    limits (-45.0 90.0)
           (-70.0 20.0)
  end
  begin
     id 5 
     name ltoes
     direction 1.53535e-011 -4.21933e-011 1   
     length 0.90832   
     axis -90 7.62852e-016 20   XYZ
    dof rx
    limits (-90.0 20.0)
  end
  begin
     id 6 
     name rhipjoint
     direction -0.682059 -0.67077 0.291312   
     length 2.43143  
     axis 0 0 0  XYZ 
  end
  begin
     id 7 
     name rfemur
     direction -0.34202 -0.939693 0   
     length 6.63488   
     axis 0 0 -20   XYZ
    dof rx ry rz
    limits (-160.0 20.0)
           (-70.0 70.0)
           (-70.0 60.0)
  end
  begin
     id 8 
     name rtibia
     direction -0.34202 -0.939693 0   
     length 6.86532   
     axis 0 0 -20   XYZ
    dof rx
    limits (-10.0 170.0)
 end
 begin
     id 9 
     name rfoot
     direction -0.105199 -0.289033 0.951521   
     length 1.77126  
     axis -90 -7.62852e-016 -20   XYZ
    dof rx rz
    limits (-45.0 90.0)
           (-20.0 70.0)
  end
  begin
     id 10 
     name rtoes
     direction -1.53551e-011 -4.21978e-011 1   
     length 0.889273   
     axis -90 -7.62852e-016 -20   XYZ
    dof rx
    limits (-90.0 20.0)
  end
  begin
     id 11 
     name lowerback
     direction -0.0514305 0.998089 0.034245   
     length 2.02077   
     axis 0 0 0   XYZ
    dof rx ry rz
    limits (-20.0 45.0)
           (-30.0 30.0)
           (-30.0 30.0)
  end
  begin
     id 12 
     name upperback
     direction 0.0203189 0.999449 -0.0262315   
     length 2.01413   
     axis 0 0 0   XYZ
    dof rx ry rz
    limits (-20.0 45.0)
           (-30.0 30.0)
           (-30.0 30.0)
  end
  begin
     id 13 
     name thorax
     direction 0.0452736 0.998142 -0.0407729   
     length 2.02986   
     axis 0 0 0   XYZ
    dof rx ry rz
    limits (-20.0 45.0)
           (-30.0 30.0)
           (-30.0 30.0)
  end
  begin
     id 14 
     name lowerneck
     direction -0.0180464 0.999645 -0.0195774   
     length 1.59034   
     axis 0 0 0   XYZ
    dof rx ry rz
    limits (-20.0 45.0)
           (-30.0 30.0)
           (-30.0 30.0)
  end
  begin
     id 15 
     name upperneck
     direction 0.0732272 0.979935 -0.18538   
     length 1.57486   
     axis 0 0 0   XYZ
    dof rx ry rz
    limits (-20.0 45.0)
           (-30.0 30.0)
           (-30.0 30.0)
  end
  begin
     id 16
     name head
     direction 0.0252963 0.997909 -0.059472  
     length 1.60334  
     axis 0 0 0   XYZ
    dof rx ry rz
    limits (-20.0 45.0)
           (-30.0 30.0)
           (-30.0 30.0)
  end
  begin
     id 17 
     name lclavicle
     direction 0.943819 0.330449 0.00315172  
     length 3.50322  
     axis 0 0 0   XYZ
    dof ry rz
    limits (-20.0 10.0)
           (0.0 20.0)
  end
  begin
     id 18 
     name lhumerus
     direction 1 -4.48949e-011 2.22502e-028   
     length 4.63208   
     axis 180 -30 -90   XYZ
    dof rx ry rz
    limits (-60.0 90.0)
           (-90.0 90.0)
           (-90.0 90.0)
  end
  begin
     id 19
     name lradius
     direction 1 -4.48967e-011 -4.10197e-027   
     length 3.41924   
     axis 180 -30 -90   XYZ
    dof rx
    limits (-10.0 170.0)
  end
  begin
     id 20
     name lwrist
     direction 1 -4.48987e-011 -1.24264e-027   
     length 1.70962   
     axis 2.50585e-015 90 90   XYZ
    dof ry
    limits (-180.0 0.0)
 end
  begin
     id 21 
     name lhand
     direction 1 -4.48983e-011 -2.48528e-027   
     length 0.62537   
     axis 1.58582e-015 90 90   XYZ
    dof rx rz
    limits (-90.0 90.0)
           (-45.0 45.0)
  end
  begin
     id 22 
     name lfingers
     direction 1 -4.48896e-011 -4.97056e-027   
     length 0.50419   
     axis 3.17164e-015 90 90   XYZ
    dof rx
    limits (0.0 90.0)
  end
  begin
     id 23
     name lthumb
     direction 0.707107 -6.34803e-011 0.707107   
     length 0.723919   
     axis -90 45 2.85299e-015   XYZ
    dof rx rz
    limits (-45.0 45.0)
           (-45.0 45.0)
  end
  begin
     id 24 
     name rclavicle
     direction -0.964499 0.260664 -0.0423695   
     length 3.91997  
     axis 0 0 0   XYZ 
    dof ry rz
    limits (-10.0 20.0)
           (-20.0 0.0)
  end
  begin
     id 25 
     name rhumerus
     direction -1 -4.48957e-011 -1.98656e-027  
     length 4.4064   
     axis 180 30 90   XYZ
    dof rx ry rz
    limits (-90.0 60.0)
           (-90.0 90.0)
           (-90.0 90.0)
  end
  begin
     id 26 
     name rradius
     direction -1 -4.48968e-011 1.96972e-027   
     length 3.44675   
     axis 180 30 90   XYZ
    dof rx
    limits (-10.0 170.0)
  end
  begin
     id 27 
     name rwrist
     direction -1 -4.48974e-011 -1.24264e-027   
     length 1.72338   
     axis 2.50585e-015 -90 -90   XYZ
    dof ry
    limits (-180.0 0.0)
  end
  begin
     id 28
     name rhand
     direction -1 -4.48901e-011 -2.48528e-027   
     length 0.513674   
     axis 1.58582e-015 -90 -90   XYZ
    dof rx rz
    limits (-90.0 90.0)
           (-45.0 45.0)
  end
  begin
     id 29
     name rfingers
     direction -1 -4.48946e-011 -4.97056e-027   
     length 0.414137   
     axis 3.17164e-015 -90 -90   XYZ
    dof rx
    limits (0.0 90.0)
  end
  begin
     id 30
     name rthumb
     direction -0.707107 -6.34859e-011 0.707107   
     length 0.59462   
     axis -90 -45 -2.85299e-015   XYZ
    dof rx rz
    limits (-45.0 45.0)
           (-45.0 45.0)
  end
:hierarchy
  begin
    root lhipjoint rhipjoint lowerback
    lhipjoint lfemur
    lfemur ltibia
    ltibia lfoot
    lfoot ltoes
    rhipjoint rfemur
    rfemur rtibia
    rtibia rfoot
    rfoot rtoes
    lowerback upperback
    upperback thorax
    thorax lowerneck lclavicle rclavicle
    lowerneck upperneck
    upperneck head
    lclavicle lhumerus
    lhumerus lradius
    lradius lwrist
    lwrist lhand lthumb
    lhand lfingers
    rclavicle rhumerus
    rhumerus rradius
    rradius rwrist
    rwrist rhand rthumb
    rhand rfingers
  end

#!OML:ASF E:\inclinewalkrobotboard\Project 1\Capture day 1\Session 1\subject1.ASF
:FULLY-SPECIFIED
:DEGREES
221
root 10.9274 16.0613 10.3156 18.6632 -75.5499 5.03624
lowerback 9.25357 3.10925 -11.5094
upperback 2.93298 2.90141 -1.56001
thorax -2.59088 1.40686 4.4734
lowerneck 0.956112 12.6944 1.6081
upperneck -15.6364 16.0552 -9.8689
head -3.88173 8.3732 -3.72121
rclavicle 3.49861e-014 -7.07673e-014
rhumerus -56.5179 -44.2644 -41.2193
rradius 81.8275
rwrist -38.7474
rhand -13.5639 -25.1328
rfingers 7.12502
rthumb 12.5496 -54.7359
lclavicle 3.49861e-014 -7.07673e-014
lhumerus -24.2035 -53.097 112.37
lradius 99.0692
lwrist -7.93855
lhand -54.1585 -33.9386
lfingers 7.12502
lthumb -26.575 -5.78308
rfemur -10.3773 9.49772 -11.3599
rtibia 7.07745
rfoot -1.75799 -39.447
rtoes 18.4078
lfemur -44.3844 0.710804 -8.57006
ltibia 28.5158
lfoot -10.6773 14.0112
ltoes -68.5969
222
root 10.9288 16.0688 10.3265 18.3248 -75.6493 5.17184
lowerback 9.19469 3.16996 -11.7758
upperback 2.94439 2.96199 -1.61418
thorax -2.56481 1.43411 4.55795
lowerneck 0.912917 12.7351 1.60788
upperneck -15.5679 16.1261 -9.76825
head -3.85928 8.40137 -3.68641
rclavicle 1.43125e-014 -4.6118e-014
rhumerus -56.2919 -44.0672 -41.5189
rradius 81.8016
rwrist -38.5097
rhand -13.5119 -25.1813
rfingers 7.12502
rthumb 12.5997 -54.7813
lclavicle 1.43125e-014 -4.6118e-014
lhumerus -24.16 -53.2283 112.29
lradius 99.0434
lwrist -7.91337
lhand -54.1751 -33.9963
lfingers 7.12502
lthumb -26.591 -5.84319
rfemur -10.2591 8.32274 -11.3991
rtibia 6.90195
rfoot 0.00824037 -39.068
rtoes 18.1414
lfemur -44.0474 0.478251 -8.6007
ltibia 28.3969
lfoot -10.7762 14.21
ltoes -68.5484
223
root 10.9311 16.0791 10.3459 18.0155 -75.8003 5.21169
lowerback 9.23295 3.25763 -12.0308
upperback 2.94796 3.04477 -1.64591
thorax -2.60575 1.47585 4.65243
lowerneck 0.767361 12.72 1.61099
upperneck -15.3336 16.1434 -9.5373
head -3.78426 8.39201 -3.59834
rclavicle -4.21423e-014 1.82882e-014
rhumerus -56.0688 -43.9176 -41.6626
rradius 81.6392
rwrist -38.3501
rhand -13.2162 -25.1518
rfingers 7.12502
rthumb 12.8848 -54.7341
lclavicle -4.21423e-014 1.82882e-014
lhumerus -24.1271 -53.2851 112.258
lradius 99.0228
lwrist -7.79313
lhand -54.1164 -34.1328
lfingers 7.12502
lthumb -26.5347 -5.97125
rfemur -10.1996 7.86169 -11.3585
rtibia 6.86165
rfoot 0.673411 -39.2426
rtoes 19.2778
lfemur -43.592 0.198038 -8.62312
ltibia 28.225
lfoot -10.8711 14.5136
ltoes -68.4561
224
root 10.9356 16.0896 10.3767 17.6934 -75.8941 5.29056
lowerback 9.22204 3.28163 -12.2006
upperback 2.94254 3.05869 -1.68903
thorax -2.61316 1.48263 4.69884
lowerneck 0.734624 12.667 1.68276
upperneck -15.1876 16.1093 -9.29361
head -3.75241 8.35563 -3.52881
rclavicle -5.56597e-015 -1.82882e-014
rhumerus -55.9021 -43.855 -41.8333
rradius 81.5104
rwrist -38.0977
rhand -13.4304 -25.1283
rfingers 7.12502
rthumb 12.6783 -54.7235
lclavicle -5.56597e-015 -1.82882e-014
lhumerus -24.1716 -53.3045 112.285
lradius 98.8918
lwrist -7.86867
lhand -54.1201 -34.6211
lfingers 7.12502
lthumb -26.5383 -6.46003
rfemur -10.1526 8.02119 -11.3304
rtibia 6.86076
rfoot -0.161262 -39.9829
rtoes 22.4064
lfemur -43.2273 -0.135859 -8.70202
ltibia 28.1203
lfoot -11.0244 14.8016
ltoes -68.4562
225
root 10.9384 16.0981 10.4141 17.2538 -75.9761 5.51352
lowerback 9.12586 3.24651 -12.45
upperback 2.92897 3.00343 -1.67944
thorax -2.576 1.45418 4.85778
lowerneck 0.842164 12.6313 1.74683
upperneck -15.125 16.0818 -9.1604
head -3.75885 8.33216 -3.5043
rclavicle -3.33958e-014 2.38542e-015
rhumerus -55.6939 -43.6644 -42.0046
rradius 81.4219
rwrist -37.9808
rhand -13.7238 -25.0865
rfingers 7.12502
rthumb 12.3954 -54.699
lclavicle -3.33958e-014 2.38542e-015
lhumerus -24.3474 -53.2888 112.357
lradius 98.8381
lwrist -7.91737
lhand -54.1102 -34.8145
lfingers 7.12502
lthumb -26.5288 -6.65203
rfemur -10.0722 8.41449 -11.404
rtibia 6.80172
rfoot -2.33745 -40.6809
rtoes 27.5392
lfemur -42.9592 -0.335281 -8.9052
ltibia 28.1466
lfoot -11.1732 14.8939
ltoes -68.4791
226
root 10.9355 16.1039 10.455 17.1484 -76.129 5.4013
lowerback 8.95386 3.27443 -12.6889
upperback 2.90879 3.0477 -1.61345
thorax -2.5237 1.4751 5.06022
lowerneck 0.936999 12.5649 1.73427
upperneck -15.0226 16.0098 -9.02595
head -3.75993 8.29002 -3.46583
rclavicle 1.47101e-014 5.96354e-015
rhumerus -55.6709 -43.4922 -41.8841
rradius 81.3605
rwrist -38.0264
rhand -13.6124 -25.0432
rfingers 7.12502
rthumb 12.5028 -54.6491
lclavicle 1.47101e-014 5.96354e-015
lhumerus -24.6634 -53.4237 112.585
lradius 98.8965
lwrist -7.77915
lhand -54.1706 -34.7275
lfingers 7.12502
lthumb -26.5866 -6.57375
rfemur -10.0484 8.95754 -11.4247
rtibia 6.78158
rfoot -3.879 -41.6242
rtoes 31.6008
lfemur -42.6657 -0.311126 -9.08713
ltibia 28.1885
lfoot -11.2652 14.8633
ltoes -68.4298
227
root 10.9321 16.1088 10.502 17.2429 -76.2595 5.16585
lowerback 8.70724 3.29788 -12.8193
upperback 2.88989 3.10718 -1.59101
thorax -2.42463 1.5008 5.15818
lowerneck 1.19919 12.5137 1.85249
upperneck -15.1911 15.9358 -9.06249
head -3.84422 8.25402 -3.51946
rclavicle -1.19271e-014 8.34896e-015
rhumerus -55.7814 -43.4766 -41.7381
rradius 81.3593
rwrist -37.8938
rhand -13.31 -24.9067
rfingers 7.12502
rthumb 12.7943 -54.4947
lclavicle -1.19271e-014 8.34896e-015
lhumerus -24.825 -53.7076 112.67
lradius 98.8828
lwrist -7.7312
lhand -54.6805 -34.8189
lfingers 7.12502
lthumb -27.0745 -6.74003
rfemur -10.1199 9.3618 -11.4229
rtibia 6.82254
rfoot -2.18239 -43.6789
rtoes 31.8061
lfemur -42.4759 -0.241132 -9.2843
ltibia 28.2531
lfoot -11.0155 15.0147
ltoes -68.8612
